<svg viewBox="0 0 120 120" fill="none" xmlns="http://www.w3.org/2000/svg">
  <!-- Monochrome: uses currentColor so it adapts to any context -->

  <!-- Body -->
  <path d="M60 10 C32 10 18 30 18 48 C18 66 32 80 46 84 L46 88 L54 88 L54 84 C54 84 60 86 66 84 L66 88 L74 88 L74 84 C88 80 102 66 102 48 C102 30 88 10 60 10Z" fill="currentColor" opacity="0.9"/>

  <!-- Left Claw -->
  <path d="M22 38 C8 34 2 43 6 52 C10 61 20 57 24 48 C27 42 24 38 22 38Z" fill="currentColor" opacity="0.9"/>

  <!-- Right Claw -->
  <path d="M98 38 C112 34 118 43 114 52 C110 61 100 57 96 48 C93 42 96 38 98 38Z" fill="currentColor" opacity="0.9"/>

  <!-- Antennae -->
  <path d="M46 15 Q36 5 31 8" stroke="currentColor" stroke-width="2.5" stroke-linecap="round"/>
  <path d="M74 15 Q84 5 89 8" stroke="currentColor" stroke-width="2.5" stroke-linecap="round"/>

  <!-- Eyes -->
  <circle cx="45" cy="30" r="5.5" fill="white"/>
  <circle cx="75" cy="30" r="5.5" fill="white"/>
  <circle cx="46" cy="29" r="2" fill="currentColor"/>
  <circle cx="76" cy="29" r="2" fill="currentColor"/>

  <!-- Collar -->
  <path d="M28 56 C42 64 78 64 92 56" stroke="currentColor" stroke-width="4" stroke-linecap="round" fill="none" opacity="0.6"/>

  <!-- Leash -->
  <path d="M60 62 L60 98 Q58 106 50 108" stroke="currentColor" stroke-width="3" stroke-linecap="round" fill="none" opacity="0.6"/>
  <ellipse cx="45" cy="109" rx="8" ry="4.5" fill="none" stroke="currentColor" stroke-width="3" opacity="0.6"/>
</svg>
